<?xml version="1.0" standalone="no"?>
<!DOCTYPE svg PUBLIC "-//W3C//DTD SVG 20010904//EN"
 "http://www.w3.org/TR/2001/REC-SVG-20010904/DTD/svg10.dtd">
<svg version="1.0" xmlns="http://www.w3.org/2000/svg"
 width="512.000000pt" height="512.000000pt" viewBox="0 0 512.000000 512.000000"
 preserveAspectRatio="xMidYMid meet">

<g transform="translate(0.000000,512.000000) scale(0.100000,-0.100000)"
fill="#000000" stroke="none">
<path d="M1455 3765 c-22 -8 -52 -28 -67 -44 -27 -30 -50 -92 -43 -114 2 -7 6
-25 10 -42 5 -22 130 -154 493 -517 l487 -488 -487 -488 c-363 -363 -488 -495
-493 -517 -4 -16 -8 -35 -10 -42 -8 -25 19 -89 49 -119 41 -41 97 -57 151 -43
34 9 108 78 528 497 l487 487 488 -487 c419 -419 493 -488 527 -497 70 -18
147 16 181 81 19 36 20 107 4 140 -7 12 -229 240 -493 505 l-482 483 487 487
c363 364 488 496 493 518 4 17 8 35 10 42 8 25 -19 89 -49 119 -30 30 -94 57
-119 49 -7 -2 -25 -6 -42 -10 -22 -5 -154 -130 -517 -493 l-488 -487 -487 487
c-363 362 -496 488 -518 493 -16 4 -37 8 -45 10 -8 2 -33 -2 -55 -10z"/>
</g>
</svg>
